<svg xmlns="http://www.w3.org/2000/svg" viewBox="0 0 48 48"><path fill="#25D366" d="M4 24C4 12.954 12.954 4 24 4s20 8.954 20 20-8.954 20-20 20c-3.44 0-6.67-.87-9.48-2.4L6 42l2.47-8.22A19.9 19.9 0 0 1 4 24zm9.7-2.2c.25-4.7 4.07-8.54 8.78-8.82 5.62-.33 10.24 4.29 9.91 9.91-.28 4.71-4.12 8.53-8.82 8.78-1.56.09-3.05-.17-4.38-.71l-2.63 1.05.97-2.55a8.6 8.6 0 0 1-3.12-7.46zm5.5 1.08c.2.45.98 1.98 2.42 3.01 1.78 1.26 3.22 1.33 3.66 1.3.45-.04 1.18-.48 1.35-.95.17-.48.17-.88.12-.96-.05-.08-.2-.13-.42-.23-.22-.09-1.3-.64-1.5-.72-.2-.09-.35-.13-.5.13-.15.26-.58.72-.71.87-.13.15-.26.17-.48.06-.22-.11-.92-.34-1.75-1.07-.65-.58-1.09-1.3-1.22-1.52-.13-.22-.01-.34.1-.45.1-.1.22-.26.33-.39.11-.13.15-.22.22-.37.07-.15.04-.28-.02-.39-.06-.11-.5-1.2-.68-1.64-.18-.44-.36-.38-.5-.39-.13-.01-.28-.01-.43-.01-.15 0-.39.06-.6.29-.2.22-.78.77-.78 1.88 0 1.11.8 2.18.91 2.33z"/></svg>